<svg width="423" height="282" viewBox="0 0 423 282" fill="none" xmlns="http://www.w3.org/2000/svg">
  <path
    d="M94.3741 218.539C97.352 218.877 100.082 219.509 102.58 220.344V220.338C102.614 220.349 102.654 220.36 102.687 220.377C102.783 220.411 102.885 220.445 102.981 220.479C117.87 225.792 124.712 224.793 130.566 223C146.381 218.144 155.754 197.236 181.365 201.28C192.228 202.995 200.97 205.33 207.778 210.079C207.778 210.073 207.766 210.056 207.766 210.056C207.811 210.096 207.862 210.129 207.907 210.169C208.883 210.857 209.836 211.551 210.739 212.267C224.06 220.964 237.326 209.628 241.138 207.061C241.42 206.858 241.708 205.245 241.995 205.042C242.148 204.929 242.232 204.862 242.232 204.862V204.873C258.921 193.108 285.469 181.196 311.063 184.118C355.032 189.143 372.731 239.012 372.731 239.012H229.43H217.732H126.635H106.534H44.1443C49.2767 227.236 69.8119 215.73 94.3741 218.539Z"
    fill="#421F91" />
  <path
    d="M61.0304 91.7233H86.935C87.5384 91.7233 88.0291 91.2327 88.0291 90.6292V83.4269C88.0291 82.8234 87.5384 82.3327 86.935 82.3327H61.0304C60.427 82.3327 59.9363 82.8234 59.9363 83.4269V90.6292C59.9363 91.2383 60.427 91.7233 61.0304 91.7233Z"
    fill="#8155FF" />
  <path d="M65.4353 85.9818H83.8386" stroke="white" stroke-width="0.6238" stroke-miterlimit="10" />
  <path d="M65.4353 88.0799H70.8553" stroke="white" stroke-width="0.6238" stroke-miterlimit="10" />
  <path d="M84.6846 90.4769V94.7182L79.2702 90.4769H84.6846Z" fill="#8155FF" />
  <path
    d="M364.852 136.212C366.59 136.212 367.999 134.782 367.999 133.019C367.999 131.256 366.59 129.827 364.852 129.827C363.114 129.827 361.704 131.256 361.704 133.019C361.704 134.782 363.114 136.212 364.852 136.212Z"
    stroke="white" stroke-width="1.0888" stroke-miterlimit="10" />
  <path
    d="M48.2953 157.694C50.7779 157.694 52.7904 155.654 52.7904 153.137C52.7904 150.62 50.7779 148.58 48.2953 148.58C45.8127 148.58 43.8002 150.62 43.8002 153.137C43.8002 155.654 45.8127 157.694 48.2953 157.694Z"
    stroke="white" stroke-width="1.0888" stroke-miterlimit="10" />
  <path
    d="M219.385 58.1597C219.385 59.1185 218.618 59.8968 217.67 59.8968C216.723 59.8968 215.956 59.1185 215.956 58.1597C215.956 57.2009 216.723 56.4226 217.67 56.4226C218.618 56.4226 219.385 57.2009 219.385 58.1597Z"
    stroke="white" stroke-width="1.0888" stroke-miterlimit="10" />
  <path
    d="M71.9664 48.8368H145.332C145.332 48.8368 144.976 45.9209 136.826 43.5916C128.677 41.2623 122.828 47.235 113.612 43.5916C104.396 39.9481 99.5122 34.7255 87.6343 37.6357C75.7621 40.5516 71.9664 48.8368 71.9664 48.8368Z"
    stroke="#FAFAFA" stroke-width="1.103" stroke-miterlimit="10" stroke-linecap="round"
    stroke-linejoin="round" />
  <path
    d="M304.532 74.5665H342.472C342.472 74.5665 342.292 72.7334 338.073 71.267C333.86 69.8006 330.831 73.5569 326.065 71.267C321.3 68.9772 318.773 65.6891 312.631 67.5221C306.495 69.3551 304.532 74.5665 304.532 74.5665Z"
    stroke="#FAFAFA" stroke-width="1.103" stroke-miterlimit="10" stroke-linecap="round"
    stroke-linejoin="round" />
  <path
    d="M284.429 39.0342C285.522 32.2531 280.91 25.8701 274.129 24.7773C267.348 23.6846 260.965 28.2959 259.873 35.077C258.78 41.8581 263.391 48.2411 270.172 49.3339C276.953 50.4266 283.336 45.8153 284.429 39.0342Z"
    fill="#421F91" />
  <path d="M265.238 108.852H136.138V238.363H265.238V108.852Z" fill="white" />
  <path
    d="M265.238 88.4803V108.852H136.138V88.4803C136.138 84.4308 139.421 81.154 143.465 81.154H257.912C261.955 81.154 265.238 84.4308 265.238 88.4803Z"
    fill="#8155FF" />
  <path
    d="M245.227 99.8731C248.582 99.8731 251.301 97.1536 251.301 93.7988C251.301 90.4441 248.582 87.7245 245.227 87.7245C241.872 87.7245 239.153 90.4441 239.153 93.7988C239.153 97.1536 241.872 99.8731 245.227 99.8731Z"
    fill="#2B4183" />
  <path
    d="M245.227 96.083C247.15 96.083 248.707 94.5264 248.707 92.6032V76.8788C248.707 74.9556 247.15 73.399 245.227 73.399C243.304 73.399 241.747 74.9556 241.747 76.8788V92.6032C241.747 94.5264 243.304 96.083 245.227 96.083Z"
    fill="#FFCB2D" />
  <path
    d="M202.363 99.8731C205.718 99.8731 208.437 97.1536 208.437 93.7988C208.437 90.4441 205.718 87.7245 202.363 87.7245C199.008 87.7245 196.289 90.4441 196.289 93.7988C196.289 97.1536 199.008 99.8731 202.363 99.8731Z"
    fill="#2B4183" />
  <path
    d="M202.363 96.083C204.286 96.083 205.843 94.5264 205.843 92.6032V76.8788C205.843 74.9556 204.286 73.399 202.363 73.399C200.44 73.399 198.883 74.9556 198.883 76.8788V92.6032C198.883 94.5264 200.446 96.083 202.363 96.083Z"
    fill="#FFCB2D" />
  <path
    d="M159.505 99.8731C162.86 99.8731 165.579 97.1536 165.579 93.7988C165.579 90.4441 162.86 87.7245 159.505 87.7245C156.15 87.7245 153.431 90.4441 153.431 93.7988C153.431 97.1536 156.15 99.8731 159.505 99.8731Z"
    fill="#2B4183" />
  <path
    d="M159.505 96.083C161.428 96.083 162.985 94.5264 162.985 92.6032V76.8788C162.985 74.9556 161.428 73.399 159.505 73.399C157.582 73.399 156.025 74.9556 156.025 76.8788V92.6032C156.019 94.5264 157.582 96.083 159.505 96.083Z"
    fill="#FFCB2D" />
  <path d="M221.614 154.214H246.159V129.669H221.614V154.214Z" stroke="#F0E0DF" stroke-width="2.2132"
    stroke-miterlimit="10" />
  <path d="M188.957 154.214H213.502V129.669H188.957V154.214Z" stroke="#F0E0DF" stroke-width="2.2132"
    stroke-miterlimit="10" />
  <path d="M156.295 154.214H180.84V129.669H156.295V154.214Z" stroke="#F0E0DF" stroke-width="2.2132"
    stroke-miterlimit="10" />
  <path d="M221.614 185.372H246.159V160.827H221.614V185.372Z" stroke="#F0E0DF" stroke-width="2.2132"
    stroke-miterlimit="10" />
  <path d="M188.957 185.372H213.502V160.827H188.957V185.372Z" stroke="#F0E0DF" stroke-width="2.2132"
    stroke-miterlimit="10" />
  <path d="M156.295 185.372H180.84V160.827H156.295V185.372Z" fill="#F88AA0" />
  <path d="M165.167 169.589L171.969 176.605" stroke="white" stroke-width="2.0174"
    stroke-miterlimit="10" />
  <path d="M171.969 169.589L165.167 176.605" stroke="white" stroke-width="2.0174"
    stroke-miterlimit="10" />
  <path d="M221.614 216.53H246.159V191.985H221.614V216.53Z" stroke="#F0E0DF" stroke-width="2.2132"
    stroke-miterlimit="10" />
  <path d="M188.957 216.53H213.502V191.985H188.957V216.53Z" stroke="#F0E0DF" stroke-width="2.2132"
    stroke-miterlimit="10" />
  <path d="M156.295 216.53H180.84V191.985H156.295V216.53Z" stroke="#F0E0DF" stroke-width="2.2132"
    stroke-miterlimit="10" />
  <path d="M263.021 153.024H251.076V160.892H263.021V153.024Z" fill="#FFA80A" />
  <path
    d="M264.86 155.066H249.232C247.455 155.066 246.011 153.622 246.011 151.846C246.011 150.069 247.455 148.625 249.232 148.625H264.86C266.637 148.625 268.081 150.069 268.081 151.846C268.086 153.622 266.642 155.066 264.86 155.066Z"
    fill="#FFCB2D" />
  <path d="M228.082 164.961L221.346 171.696L226.096 176.446L232.832 169.71L228.082 164.961Z"
    fill="#FFA80A" />
  <path
    d="M230.208 164.682L220.8 174.09C219.853 175.037 218.313 175.037 217.366 174.09C216.418 173.142 216.418 171.603 217.366 170.655L226.773 161.248C227.721 160.3 229.26 160.3 230.208 161.248C231.155 162.195 231.155 163.735 230.208 164.682Z"
    fill="#FFCB2D" />
  <path
    d="M256.908 238.256C279.207 238.256 297.284 220.179 297.284 197.879C297.284 175.58 279.207 157.503 256.908 157.503C234.608 157.503 216.531 175.58 216.531 197.879C216.531 220.179 234.608 238.256 256.908 238.256Z"
    fill="#F67B91" />
  <path
    d="M256.908 236.085C278.008 236.085 295.113 218.98 295.113 197.879C295.113 176.779 278.008 159.674 256.908 159.674C235.807 159.674 218.702 176.779 218.702 197.879C218.702 218.98 235.807 236.085 256.908 236.085Z"
    fill="#F88AA0" />
  <path
    d="M256.908 231.77C275.625 231.77 290.798 216.597 290.798 197.879C290.798 179.162 275.625 163.989 256.908 163.989C238.19 163.989 223.017 179.162 223.017 197.879C223.017 216.597 238.19 231.77 256.908 231.77Z"
    fill="#F6F6F6" />
  <g opacity="0.71">
    <path d="M219.83 171.067L271.199 250.664L294.408 230.704L243.586 159.465L219.83 171.067Z"
      fill="white" />
    <path d="M247.207 151.891L298.576 231.488L301.56 221.511L250.737 150.267L247.207 151.891Z"
      fill="white" />
  </g>
  <path
    d="M257.077 171.625C256.609 171.625 256.225 171.242 256.225 170.774V168.771C256.225 168.303 256.609 167.92 257.077 167.92C257.545 167.92 257.928 168.303 257.928 168.771V170.774C257.928 171.242 257.551 171.625 257.077 171.625Z"
    fill="#8054FF" />
  <path
    d="M257.077 228.251C256.609 228.251 256.225 227.867 256.225 227.399V225.397C256.225 224.923 256.609 224.545 257.077 224.545C257.545 224.545 257.928 224.929 257.928 225.397V227.399C257.928 227.867 257.551 228.251 257.077 228.251Z"
    fill="#8054FF" />
  <path
    d="M237.765 179.623C237.546 179.623 237.331 179.538 237.162 179.375L235.746 177.959C235.414 177.626 235.414 177.085 235.746 176.752C236.079 176.419 236.621 176.419 236.953 176.752L238.369 178.168C238.702 178.5 238.702 179.042 238.369 179.375C238.2 179.538 237.985 179.623 237.765 179.623Z"
    fill="#8054FF" />
  <path
    d="M277.804 219.661C277.584 219.661 277.37 219.576 277.2 219.413L275.785 217.997C275.452 217.665 275.452 217.123 275.785 216.79C276.118 216.458 276.659 216.458 276.992 216.79L278.407 218.206C278.74 218.539 278.74 219.08 278.407 219.413C278.238 219.582 278.024 219.661 277.804 219.661Z"
    fill="#8054FF" />
  <path
    d="M236.35 219.661C236.13 219.661 235.916 219.576 235.746 219.413C235.414 219.08 235.414 218.539 235.746 218.206L237.162 216.79C237.495 216.458 238.036 216.458 238.369 216.79C238.702 217.123 238.702 217.665 238.369 217.997L236.953 219.413C236.784 219.582 236.57 219.661 236.35 219.661Z"
    fill="#8054FF" />
  <path
    d="M276.388 179.623C276.168 179.623 275.954 179.538 275.785 179.375C275.452 179.042 275.452 178.5 275.785 178.168L277.2 176.752C277.533 176.419 278.075 176.419 278.407 176.752C278.74 177.085 278.74 177.626 278.407 177.959L276.992 179.375C276.828 179.538 276.608 179.623 276.388 179.623Z"
    fill="#8054FF" />
  <path
    d="M229.768 198.934H227.766C227.298 198.934 226.914 198.551 226.914 198.082C226.914 197.614 227.298 197.231 227.766 197.231H229.768C230.236 197.231 230.62 197.614 230.62 198.082C230.62 198.551 230.236 198.934 229.768 198.934Z"
    fill="#8054FF" />
  <path
    d="M286.388 198.934H284.386C283.918 198.934 283.534 198.551 283.534 198.082C283.534 197.614 283.918 197.231 284.386 197.231H286.388C286.862 197.231 287.24 197.614 287.24 198.082C287.24 198.551 286.862 198.934 286.388 198.934Z"
    fill="#8054FF" />
  <path
    d="M259.113 197.761H255.041V180.102C255.041 178.98 255.954 178.066 257.077 178.066C258.199 178.066 259.113 178.98 259.113 180.102V197.761Z"
    fill="#8054FF" />
  <path
    d="M257.077 202.431C259.656 202.431 261.747 200.34 261.747 197.761C261.747 195.182 259.656 193.091 257.077 193.091C254.498 193.091 252.407 195.182 252.407 197.761C252.407 200.34 254.498 202.431 257.077 202.431Z"
    fill="#2B4183" />
  <path
    d="M117.69 155.777L125.067 188.32C125.518 191.422 124.323 194.535 121.948 196.436L99.9182 213.666L100.324 197.8L111.328 188.822L99.9182 154.886L117.69 155.777Z"
    fill="#7041FD" />
  <path
    d="M89.1797 213.796L99.7885 208.246L95.598 202.335L84.0811 208.601L87.7528 213.26L89.1797 213.796Z"
    fill="#FA849B" />
  <path
    d="M86.6586 206.114C86.6586 206.114 88.4521 212.684 93.6127 212.318L95.6036 227.969L80.3756 208.657L86.6586 206.114Z"
    fill="#181F42" />
  <path d="M95.6049 227.962L80.375 208.649L78.5505 210.088L93.7803 229.4L95.6049 227.962Z"
    fill="white" />
  <path d="M93.8722 214.36C93.8722 214.36 92.6821 213.976 90.9055 214.061" stroke="white"
    stroke-width="1.5042" stroke-miterlimit="10" stroke-linecap="round" stroke-linejoin="round" />
  <path d="M94.3121 216.655C94.3121 216.655 93.122 216.271 91.3454 216.356" stroke="white"
    stroke-width="1.5042" stroke-miterlimit="10" stroke-linecap="round" stroke-linejoin="round" />
  <path d="M94.752 218.945C94.752 218.945 93.562 218.561 91.7854 218.646" stroke="white"
    stroke-width="1.5042" stroke-miterlimit="10" stroke-linecap="round" stroke-linejoin="round" />
  <path
    d="M98.6492 232.966L99.7208 221.201L92.4847 220.829L91.4075 233.755H97.3464L98.6492 232.966Z"
    fill="#FA849B" />
  <path
    d="M90.4825 230.191C90.4825 230.191 96.7485 232.853 99.6588 228.572L113.183 236.7H88.5875L90.4825 230.191Z"
    fill="#181F42" />
  <path d="M113.189 236.7H88.5931V239.023H113.189V236.7Z" fill="white" />
  <path d="M101.43 229.633C101.43 229.633 100.392 230.332 99.3599 231.776" stroke="white"
    stroke-width="1.5042" stroke-miterlimit="10" stroke-linecap="round" stroke-linejoin="round" />
  <path d="M103.5 230.71C103.5 230.71 102.462 231.409 101.43 232.853" stroke="white"
    stroke-width="1.5042" stroke-miterlimit="10" stroke-linecap="round" stroke-linejoin="round" />
  <path d="M105.575 231.781C105.575 231.781 104.537 232.481 103.505 233.925" stroke="white"
    stroke-width="1.5042" stroke-miterlimit="10" stroke-linecap="round" stroke-linejoin="round" />
  <path d="M93.3251 154.982L90.0087 223.609H102.597L111.768 155.207L93.3251 154.982Z" fill="#8155FF" />
  <path d="M117.69 155.777L110.059 167.739L108.463 155.478L117.69 155.777Z" fill="#8155FF" />
  <path d="M150.408 144.153L142.889 144.739L144.232 137.187L152.088 137.847L150.408 144.153Z"
    fill="#FA849B" />
  <path
    d="M156.736 143.786C154.525 145.681 151.197 145.422 149.302 143.211C147.407 141 147.666 137.672 149.877 135.777C152.088 133.882 155.416 134.142 157.311 136.353C159.206 138.564 158.946 141.891 156.736 143.786Z"
    fill="#FA849B" />
  <path
    d="M153.577 134.52C153.577 134.52 152.618 132.314 150.391 133.95C148.157 135.586 146.178 138.924 149.302 143.211L153.577 134.52Z"
    fill="#FA849B" />
  <path
    d="M153.577 134.491L159.635 132.969C160.137 132.805 160.695 133.076 160.87 133.567C161.016 133.99 160.825 134.446 160.413 134.638L154.26 137.39L153.577 134.491Z"
    fill="#FA849B" />
  <path
    d="M122.016 123.984L131.948 139.703C133.352 142.224 132.568 145.399 130.154 146.978C127.622 148.631 124.227 147.932 122.563 145.405L111.616 130.307C110.025 127.893 110.352 124.695 112.394 122.647C115.253 119.788 120.047 120.459 122.016 123.984Z"
    fill="#FFCD2E" />
  <path d="M118.908 140.425L119.495 131.824L121.627 144.181L118.908 140.425Z" fill="#F2BB19" />
  <path
    d="M126.793 138.129L148.659 135.557L148.591 145.546L128.254 148.168C125.044 148.789 122.095 146.262 122.213 142.997C122.309 140.459 124.266 138.377 126.793 138.129Z"
    fill="#FFCD2E" />
  <path
    d="M88.9484 167.739C88.9484 167.739 91.3849 167.937 90.9901 165.145C90.5897 162.359 88.5367 158.975 83.19 159.73L88.9484 167.739Z"
    fill="#FA849B" />
  <path d="M71.3027 190.09H95.848V165.545H71.3027V190.09Z" fill="#FFCD2E" />
  <path d="M72.4385 190.09H96.9837V165.545H72.4385V190.09Z" fill="#FFCD2E" />
  <path
    d="M79.1123 166.138C78.4693 163.244 80.291 160.379 83.1843 159.73C86.0777 159.087 88.9428 160.909 89.5914 163.803C90.2343 166.696 88.4126 169.561 85.5193 170.21C82.6203 170.858 79.7552 169.031 79.1123 166.138Z"
    fill="#FA849B" />
  <path
    d="M89.5914 139.488L89.3489 161.507L79.7045 161.056L79.445 139.663C79.2364 136.403 82.1184 133.798 85.3445 134.334C87.8543 134.74 89.6647 136.945 89.5914 139.488Z"
    fill="#FFCD2E" />
  <path
    d="M101.977 130.267L88.6721 143.256C86.5007 145.157 83.2295 145.05 81.1822 143.019C79.039 140.887 79.0164 137.419 81.1427 135.264L93.6296 121.412C95.66 119.354 98.8579 119.004 101.283 120.583C104.673 122.777 105.017 127.611 101.977 130.267Z"
    fill="#FFCD2E" />
  <path
    d="M116.827 120.843L97.9048 119.596C96.2015 119.483 93.1559 122.58 93.3364 124.283L93.3251 154.982L117.69 155.777L120.166 124.616C120.279 122.659 118.784 120.972 116.827 120.843Z"
    fill="#FFCD2E" />
  <path d="M93.3251 138.71L98.8184 133.347L93.3307 147.87L93.3251 138.71Z" fill="#F2BB19" />
  <path
    d="M113.742 108.141C113.618 109.563 114.639 110.82 116.02 110.944C117.397 111.069 118.615 110.014 118.739 108.593C118.863 107.171 117.842 105.914 116.46 105.79C115.079 105.665 113.866 106.714 113.742 108.141Z"
    fill="#E6728C" />
  <path
    d="M112.287 114.216L112.174 120.397C112.14 122.569 110.82 123.702 108.756 123.64C106.991 123.589 105.068 122.698 105.18 120.786L105.818 111.069L112.287 114.216Z"
    fill="#FA849B" />
  <path
    d="M112.225 118.322C112.225 118.322 107.183 118.654 105.727 112.952C105.271 111.159 112.315 113.578 112.315 113.578L112.225 118.322Z"
    fill="#312725" />
  <path
    d="M110.397 115.981C113.928 116.054 116.895 113.234 117.053 110.262L117.351 104.035C117.549 100.307 114.847 97.0926 111.249 96.7711C107.56 96.4384 103.663 99.202 103.342 103.009L103.167 107.859C103.003 112.23 106.179 115.603 110.397 115.981Z"
    fill="#F8879D" />
  <path d="M113.381 107.532L113.544 109.568L112.67 109.585" stroke="#312725" stroke-width="0.5974"
    stroke-miterlimit="10" stroke-linecap="round" stroke-linejoin="round" />
  <path
    d="M109.551 103.415C109.551 103.415 111.001 103.319 111.001 103.928C111.001 103.928 110.995 104.34 109.732 104.396C108.468 104.453 108.141 104.357 108.034 103.968C107.927 103.573 108.875 103.404 109.551 103.415Z"
    fill="#312725" />
  <path
    d="M115.592 104.842C115.592 104.842 114.402 104.695 114.295 105.265C114.295 105.265 114.233 105.649 115.276 105.756C116.319 105.863 116.663 105.733 116.765 105.423C116.883 105.068 116.161 104.859 115.592 104.842Z"
    fill="#312725" />
  <path
    d="M114.684 107.154C114.667 107.498 114.926 107.792 115.259 107.814C115.592 107.831 115.879 107.566 115.896 107.222C115.913 106.878 115.654 106.585 115.321 106.562C114.988 106.54 114.701 106.805 114.684 107.154Z"
    fill="#312725" />
  <path
    d="M109.371 106.878C109.354 107.222 109.613 107.515 109.946 107.538C110.279 107.555 110.567 107.29 110.583 106.946C110.6 106.602 110.341 106.308 110.008 106.286C109.675 106.263 109.388 106.528 109.371 106.878Z"
    fill="#312725" />
  <path d="M110.832 110.465C110.865 110.567 111.695 111.43 112.856 111.131" stroke="#312725"
    stroke-width="0.5974" stroke-miterlimit="10" stroke-linecap="round" stroke-linejoin="round" />
  <path
    d="M115.896 93.7481C114.543 93.1672 111.091 92.5242 110.33 95.5755C106.895 95.316 101.43 95.3781 100.883 98.356C100.076 102.727 103.178 107.064 103.178 107.064L104.052 107.51C104.052 107.51 106.269 106.353 105.699 101.12C105.699 101.12 113.635 103.032 117.357 101.018C121.085 99.0046 119.957 95.4965 115.896 93.7481Z"
    fill="#312725" />
  <path
    d="M99.9239 107.673C99.8054 109.083 100.815 110.324 102.18 110.448C103.545 110.572 104.752 109.529 104.87 108.119C104.989 106.709 103.979 105.468 102.614 105.344C101.249 105.22 100.042 106.263 99.9239 107.673Z"
    fill="#F8879D" />
  <path d="M103.184 108.587C103.184 108.587 103.342 106.737 101.605 106.872" stroke="#312725"
    stroke-width="0.5974" stroke-miterlimit="10" stroke-linecap="round" stroke-linejoin="round" />
  <path
    d="M102.783 119.918L114.108 120.662C114.108 120.662 114.469 124.565 109.433 124.294C103.765 123.995 102.783 119.918 102.783 119.918Z"
    fill="#FA849B" />
  <path
    d="M339.584 214.32L328.423 209.12L332.45 202.843L344.587 208.742L341.023 213.705L339.584 214.32Z"
    fill="#FA849B" />
  <path
    d="M341.818 206.306C341.818 206.306 340.284 213.141 334.965 213.006L333.657 229.187L348.4 208.624L341.818 206.306Z"
    fill="#181F42" />
  <path d="M335.583 230.572L350.33 210.005L348.386 208.612L333.64 229.178L335.583 230.572Z"
    fill="white" />
  <path d="M334.79 215.126C334.79 215.126 335.997 214.681 337.825 214.681" stroke="white"
    stroke-width="1.5477" stroke-miterlimit="10" stroke-linecap="round" stroke-linejoin="round" />
  <path d="M334.446 217.501C334.446 217.501 335.653 217.055 337.481 217.055" stroke="white"
    stroke-width="1.5477" stroke-miterlimit="10" stroke-linecap="round" stroke-linejoin="round" />
  <path d="M334.102 219.875C334.102 219.875 335.309 219.43 337.137 219.43" stroke="white"
    stroke-width="1.5477" stroke-miterlimit="10" stroke-linecap="round" stroke-linejoin="round" />
  <path
    d="M313.674 146.358C313.674 146.358 306.382 173.582 305.304 178.946C304.233 184.315 302.084 195.048 306.59 198.912C311.097 202.775 328.417 212.047 328.417 212.047L334.79 200.609L324.469 194.405L313.674 146.358Z"
    fill="#243B77" />
  <path d="M323.51 232.926L321.232 220.823L328.677 220.439L330.955 233.739H324.847L323.51 232.926Z"
    fill="#FA849B" />
  <path
    d="M331.327 230.072C331.327 230.072 324.875 232.808 321.886 228.409L307.972 236.773H333.279L331.327 230.072Z"
    fill="#181F42" />
  <path d="M307.97 239.162H333.276V236.771H307.97V239.162Z" fill="white" />
  <path d="M320.064 229.503C320.064 229.503 321.13 230.219 322.196 231.708" stroke="white"
    stroke-width="1.5477" stroke-miterlimit="10" stroke-linecap="round" stroke-linejoin="round" />
  <path d="M317.932 230.603C317.932 230.603 318.998 231.319 320.064 232.808" stroke="white"
    stroke-width="1.5477" stroke-miterlimit="10" stroke-linecap="round" stroke-linejoin="round" />
  <path d="M315.801 231.708C315.801 231.708 316.866 232.424 317.932 233.913" stroke="white"
    stroke-width="1.5477" stroke-miterlimit="10" stroke-linecap="round" stroke-linejoin="round" />
  <path
    d="M313.674 146.358L312.952 187.428C312.924 188.901 313.043 190.373 313.302 191.822L319.404 223.496H332.173L328.609 187.778C328.761 181.208 330.938 173.853 331.756 165.839C331.756 165.839 334.26 150.977 327.396 146.437L313.674 146.358Z"
    fill="#2B4183" />
  <path
    d="M305.502 140.724L284.628 133.087L282.203 137.154L302.552 147.937C305.942 149.229 309.439 146.319 308.79 142.754C308.491 141.113 307.07 141.282 305.502 140.724Z"
    fill="#FA849B" />
  <path
    d="M282.062 129.985C281.695 129.59 281.103 129.404 280.601 129.528C279.919 129.697 279.648 130.363 280.015 130.966L280.314 131.463C279.642 131.717 278.261 131.784 275.728 129.229C275.305 128.801 274.6 128.699 274.166 129.004C273.822 129.241 273.743 129.658 273.929 130.03C273.94 130.047 273.952 130.064 273.957 130.081C273.608 129.968 273.219 129.996 272.942 130.188C272.598 130.425 272.519 130.842 272.705 131.215C272.728 131.265 272.762 131.31 272.79 131.361C272.615 131.378 272.451 131.429 272.31 131.525C271.966 131.762 271.887 132.179 272.074 132.551C272.124 132.658 272.198 132.76 272.288 132.85C272.322 132.884 272.356 132.912 272.389 132.946C272.373 132.957 272.356 132.963 272.344 132.969C272 133.206 271.921 133.623 272.107 133.995C272.158 134.102 272.232 134.204 272.322 134.294C273.021 134.999 273.715 135.586 274.392 136.059C274.392 136.059 274.403 136.071 274.425 136.082C274.747 136.302 275.063 136.494 275.379 136.663C276.839 137.514 279.97 136.798 282.66 137.232L284.758 133.268L282.062 129.985Z"
    fill="#FA849B" />
  <path d="M274.664 144.196L284.756 121.142L261.702 111.05L251.61 134.104L274.664 144.196Z"
    fill="#FFCD2E" />
  <path
    d="M282.406 130.402L280.359 128.017C280.026 127.628 279.428 127.628 279.095 128.017C278.875 128.271 278.83 128.637 278.983 128.936L280.015 130.966C280.015 130.966 279.135 133.73 281.233 136.127L282.406 130.402Z"
    fill="#FA849B" />
  <path
    d="M314.751 141.158L307.154 147.227C305.62 148.45 303.483 148.58 301.813 147.548C299.461 146.099 298.023 144.756 299.721 142.574L308.068 134.108L314.751 141.158Z"
    fill="#FA849B" />
  <path
    d="M320.64 133.894C320.64 133.894 319.63 138.879 313.635 143.408L304.391 134.683L311.869 126.347L320.64 133.894Z"
    fill="#7041FD" />
  <path
    d="M335.061 140.487L351.129 160.757L354.767 158.349C354.767 158.349 345.546 141.18 341.259 135.766C339.009 132.924 334.503 133.668 333.256 137.075C332.687 138.631 333.995 139.206 335.061 140.487Z"
    fill="#FA849B" />
  <path
    d="M351.908 164.829C352.038 165.337 352.455 165.771 352.94 165.895C353.6 166.07 354.141 165.624 354.113 164.936L354.085 164.372C354.779 164.462 355.985 165.055 356.961 168.41C357.125 168.974 357.678 169.386 358.191 169.33C358.591 169.285 358.856 168.969 358.873 168.563C358.873 168.546 358.873 168.523 358.873 168.506C359.121 168.766 359.46 168.924 359.787 168.884C360.187 168.839 360.452 168.523 360.469 168.117C360.469 168.066 360.469 168.01 360.464 167.954C360.622 168.021 360.785 168.049 360.949 168.033C361.349 167.987 361.614 167.672 361.631 167.265C361.637 167.153 361.62 167.029 361.586 166.91C361.575 166.865 361.558 166.826 361.547 166.78C361.563 166.78 361.58 166.78 361.597 166.78C361.998 166.735 362.263 166.419 362.28 166.013C362.285 165.901 362.268 165.777 362.235 165.658C361.964 164.727 361.648 163.91 361.287 163.188C361.287 163.188 361.281 163.176 361.27 163.154C361.101 162.816 360.915 162.505 360.723 162.212C359.871 160.808 356.865 159.962 354.767 158.337L351.129 160.746L351.908 164.829Z"
    fill="#FA849B" />
  <path
    d="M332.664 127.988L339.974 134.401C341.451 135.698 341.953 137.78 341.231 139.601C340.216 142.173 339.15 143.82 336.702 142.54L326.9 135.811L332.664 127.988Z"
    fill="#FA849B" />
  <path
    d="M323.257 123.516C323.257 123.516 329.517 123.623 335.033 128.716L330.053 137.977L320.262 134.582L323.257 123.516Z"
    fill="#8155FF" />
  <path
    d="M315.327 124.069C315.327 124.069 309.252 125.749 309.23 133.894C309.219 138.344 313.669 146.358 313.669 146.358L327.391 146.431C327.391 146.431 329.404 140.842 330.611 135.789C331.818 130.735 327.955 125.936 323.251 123.51L315.327 124.069Z"
    fill="#8155FF" />
  <path d="M330.053 137.977L324.667 134.114L328.823 142.156L330.053 137.977Z" fill="#7041FD" />
  <path
    d="M318.79 126.674C320.69 126.392 321.367 125.118 321.085 123.211L318.97 112.304L313.229 113.223L314.83 123.742C315.112 125.648 316.883 126.962 318.79 126.674Z"
    fill="#F8879D" />
  <path
    d="M317.656 114.464C317.656 114.464 319.517 120.279 314.582 122.258L314.125 118.79L319.196 114.954"
    fill="#32292A" />
  <path
    d="M313.398 119.534C316.985 119.196 319.641 116.325 319.342 113.127L318.35 102.648L312.304 102.665C310.076 102.874 307.013 105.829 307.2 107.82L308.254 114.323C308.48 116.652 310.386 119.822 313.398 119.534Z"
    fill="#F8879D" />
  <path
    d="M308.536 110.527L307.16 114.035C306.934 114.396 307.245 114.836 307.69 114.791L310.053 114.571L308.536 110.527Z"
    fill="#F8879D" />
  <path
    d="M309.738 108.891C309.738 108.891 308.452 108.925 308.497 109.467C308.497 109.467 308.536 109.828 309.659 109.777C310.781 109.726 311.063 109.608 311.125 109.252C311.187 108.903 310.335 108.829 309.738 108.891Z"
    fill="#312725" />
  <path
    d="M309.805 111.435C309.85 111.74 309.647 112.022 309.354 112.067C309.061 112.112 308.784 111.898 308.739 111.593C308.694 111.289 308.897 111.007 309.19 110.961C309.489 110.916 309.766 111.131 309.805 111.435Z"
    fill="#312725" />
  <path d="M309.393 115.518C309.393 115.518 310.29 115.518 310.708 114.464" stroke="#312725"
    stroke-width="0.5974" stroke-miterlimit="10" stroke-linecap="round" stroke-linejoin="round" />
  <path
    d="M319.365 122.896L323.251 123.516C323.251 123.516 319.168 130.137 315.146 128.547C310.51 126.714 316.658 123.234 316.658 123.234L319.365 122.896Z"
    fill="#F8879D" />
  <path
    d="M317.735 111.001C314.701 110.223 314.12 107.38 314.12 107.38L306.083 108.965C306.083 108.965 304.836 100.956 314.458 99.4501C319.28 98.6944 322.365 101.024 323.99 103.359C325.541 105.581 325.693 108.485 324.61 110.967C323.843 112.727 321.869 115.191 319.715 116.314L318.97 112.304C318.97 112.309 318.271 111.142 317.735 111.001Z"
    fill="#32292A" />
  <path
    d="M321.587 110.426C321.576 111.852 320.442 113.003 319.06 112.997C317.679 112.992 316.568 111.83 316.579 110.403C316.59 108.976 317.724 107.826 319.106 107.831C320.493 107.831 321.604 108.999 321.587 110.426Z"
    fill="#F8879D" />
  <path d="M318.226 111.029C318.226 111.029 318.243 109.157 319.974 109.461" stroke="#312725"
    stroke-width="0.6026" stroke-miterlimit="10" stroke-linecap="round" stroke-linejoin="round" />
  <path
    d="M334.384 100.155C334.96 103.556 332.664 106.782 329.263 107.357C325.862 107.933 322.636 105.637 322.061 102.236C321.486 98.8354 323.781 95.6093 327.182 95.034C330.583 94.4587 333.809 96.7542 334.384 100.155Z"
    fill="#32292A" />
  <path d="M389.211 239.362H30.377" stroke="#281F27" stroke-width="0.7565" stroke-miterlimit="10" />
</svg>
  