<svg width="1695" height="478" viewBox="0 0 1695 478" fill="none" xmlns="http://www.w3.org/2000/svg">
  <rect x="23" y="48" width="379" height="331" fill="url(#paint0_linear_10320_149)"/>
  <rect x="18" y="46" width="385" height="337" rx="33" stroke="url(#paint1_linear_10320_149)" stroke-width="36"/>
  <rect x="89" width="34" height="96" rx="17" fill="url(#paint2_linear_10320_149)"/>
  <rect x="196" width="34" height="96" rx="17" fill="url(#paint3_linear_10320_149)"/>
  <rect x="303" width="34" height="96" rx="17" fill="url(#paint4_linear_10320_149)"/>
  <circle cx="106" cy="155" r="22" fill="white"/>
  <circle cx="106" cy="229" r="22" fill="white"/>
  <circle cx="213" cy="229" r="22" fill="white"/>
  <circle cx="390.5" cy="364.5" r="81.5" fill="url(#paint5_linear_10320_149)"/>
  <circle cx="213" cy="303" r="22" fill="white"/>
  <circle cx="107" cy="303" r="22" fill="white"/>
  <circle cx="213" cy="155" r="22" fill="white"/>
  <circle cx="319" cy="155" r="22" fill="white"/>
  <rect x="363" y="304" width="34" height="77" rx="17" fill="white"/>
  <rect x="357" y="364.241" width="34" height="77" rx="17" transform="rotate(-43.1222 357 364.241)" fill="white"/>
  <path d="M486 364.5C486 417.866 442.949 461 390 461C337.051 461 294 417.866 294 364.5C294 311.134 337.051 268 390 268C442.949 268 486 311.134 486 364.5Z" stroke="url(#paint6_linear_10320_149)" stroke-width="34"/>
  <g filter="url(#filter0_d_10320_149)">
  <path d="M672.176 198.365H630.604V218.58H669.012V246.441H630.604V270.699H672.176V299H595.887V170.504H672.176V198.365ZM735.105 268.414H735.721C735.721 265.426 736.248 262.115 737.303 258.482L754.969 199.42H790.74L752.771 299H718.758L680.789 199.42H716.648L733.523 258.307L733.963 260.328C734.725 263.844 735.105 266.539 735.105 268.414ZM850.77 300.758C834.246 300.758 821.355 296.363 812.098 287.574C802.957 278.668 798.387 265.953 798.387 249.43C798.387 232.848 802.635 220.133 811.131 211.285C819.627 202.203 831.551 197.662 846.902 197.662C862.254 197.662 874.031 201.588 882.234 209.439C890.438 217.291 894.539 228.541 894.539 243.189V258.482H833.104C833.338 264.049 835.359 268.414 839.168 271.578C843.035 274.742 848.162 276.324 854.549 276.324C860.994 276.324 866.678 275.768 871.6 274.654C876.521 273.541 882 271.578 888.035 268.766V293.463C882.41 296.334 876.785 298.268 871.16 299.264C865.535 300.26 858.738 300.758 850.77 300.758ZM863.338 236.861C863.221 232.057 861.844 228.219 859.207 225.348C856.629 222.477 853.172 221.041 848.836 221.041C844.559 221.041 841.102 222.359 838.465 224.996C835.828 227.633 834.275 231.588 833.807 236.861H863.338ZM976.277 197.662C987.352 197.662 995.936 200.885 1002.03 207.33C1008.12 213.775 1011.17 222.74 1011.17 234.225V299H976.805V244.684C976.805 237.945 975.838 232.936 973.904 229.654C971.971 226.314 968.924 224.645 964.764 224.645C958.904 224.645 954.686 226.988 952.107 231.676C949.588 236.305 948.328 244.215 948.328 255.406V299H913.963V199.42H939.891L944.197 211.812H946.219C952.078 202.379 962.098 197.662 976.277 197.662ZM1074.01 199.42H1098.45V225.172H1074.01V263.932C1074.01 270.377 1077.12 273.6 1083.33 273.6C1088.02 273.6 1093.55 272.457 1099.94 270.172V295.221C1095.25 297.271 1090.83 298.678 1086.67 299.439C1082.51 300.318 1077.62 300.758 1071.99 300.758C1060.56 300.758 1052.27 297.975 1047.12 292.408C1041.96 286.783 1039.38 278.053 1039.38 266.217V225.172H1027.34V211.285L1042.63 200.387L1051.51 179.469H1074.01V199.42ZM1163.84 197.662C1173.15 197.662 1181.53 199.742 1188.97 203.902C1196.41 208.062 1202.19 214.01 1206.29 221.744C1210.39 229.479 1212.44 238.268 1212.44 248.111C1212.44 248.404 1212.44 248.697 1212.44 248.99C1212.44 265.279 1208.04 277.994 1199.26 287.135C1190.47 296.217 1178.37 300.758 1162.96 300.758C1147.55 300.758 1135.36 296.1 1126.39 286.783C1117.49 277.408 1113.04 264.723 1113.04 248.727C1113.04 232.672 1117.4 220.191 1126.13 211.285C1134.86 202.203 1147.17 197.662 1163.04 197.662C1163.28 197.662 1163.54 197.662 1163.84 197.662ZM1177.46 249.078C1177.46 240.289 1176.32 233.785 1174.03 229.566C1171.75 225.348 1168 223.238 1162.78 223.238C1157.57 223.238 1153.79 225.348 1151.44 229.566C1149.1 233.785 1147.93 240.289 1147.93 249.078C1147.93 257.809 1149.1 264.371 1151.44 268.766C1153.79 273.102 1157.57 275.27 1162.78 275.27C1168 275.27 1171.75 273.102 1174.03 268.766C1176.32 264.43 1177.46 257.867 1177.46 249.078Z" fill="white"/>
  <path d="M1356.84 198.365H1315.1V222.887H1353.5V250.748H1315.1V299H1280.91V170.504H1356.84V198.365ZM1450.54 161.1V162.945C1446.55 166.168 1440.34 170.768 1431.9 176.744C1423.46 182.721 1417.02 187.115 1412.57 189.928H1389.71V187.379C1398.74 177.711 1404.42 171.5 1406.77 168.746C1409.17 165.992 1411.22 163.443 1412.92 161.1H1450.54ZM1424.52 197.662C1437.29 197.662 1447.17 200.855 1454.14 207.242C1461.17 213.629 1464.69 222.447 1464.69 233.697V299H1440.87L1434.28 285.816H1433.57C1428.83 291.617 1424.08 295.572 1419.33 297.682C1414.59 299.732 1408.41 300.758 1400.79 300.758C1391.41 300.758 1384.03 297.945 1378.64 292.32C1373.25 286.637 1370.55 278.668 1370.55 268.414C1370.55 258.102 1374.16 250.309 1381.37 245.035C1388.63 239.762 1399.41 236.803 1413.71 236.158L1430.32 235.631V234.225C1430.32 226.021 1426.28 221.92 1418.19 221.92C1410.93 221.92 1401.7 224.381 1390.51 229.303L1380.57 206.627C1392.18 200.65 1406.82 197.662 1424.52 197.662ZM1405.62 267.359C1405.62 273.453 1408.88 276.5 1415.38 276.5C1419.6 276.5 1423.17 275.182 1426.1 272.545C1429.03 269.908 1430.5 266.48 1430.5 262.262V254.527L1422.59 254.879C1411.28 255.289 1405.62 259.449 1405.62 267.359ZM1533.42 300.758C1517.19 300.758 1504.85 296.393 1496.41 287.662C1487.98 278.873 1483.76 266.217 1483.76 249.693C1483.76 233.111 1488.3 220.338 1497.38 211.373C1506.46 202.232 1519.38 197.662 1536.14 197.662C1547.62 197.662 1558.49 200.182 1568.75 205.221L1558.64 230.621C1553.89 228.57 1549.82 227.076 1546.42 226.139C1543.08 225.143 1539.66 224.645 1536.14 224.645C1530.57 224.645 1526.27 226.812 1523.22 231.148C1520.17 235.484 1518.65 241.607 1518.65 249.518C1518.65 265.455 1524.54 273.424 1536.32 273.424C1546.45 273.424 1556.12 270.494 1565.32 264.635V291.969C1556.47 297.828 1545.84 300.758 1533.42 300.758ZM1584.39 174.635C1584.39 169.42 1585.83 165.582 1588.7 163.121C1591.63 160.602 1596.23 159.342 1602.5 159.342C1608.83 159.342 1613.48 160.631 1616.47 163.209C1619.46 165.729 1620.96 169.537 1620.96 174.635C1620.96 184.713 1614.86 189.752 1602.67 189.752C1590.49 189.752 1584.39 184.713 1584.39 174.635ZM1619.64 299H1585.27V199.42H1619.64V299ZM1678 299H1643.63V162.242H1678V299Z" fill="#CC48A6"/>
  </g>
  <defs>
  <filter id="filter0_d_10320_149" x="578.887" y="146.342" width="1116.11" height="175.416" filterUnits="userSpaceOnUse" color-interpolation-filters="sRGB">
  <feFlood flood-opacity="0" result="BackgroundImageFix"/>
  <feColorMatrix in="SourceAlpha" type="matrix" values="0 0 0 0 0 0 0 0 0 0 0 0 0 0 0 0 0 0 127 0" result="hardAlpha"/>
  <feOffset dy="4"/>
  <feGaussianBlur stdDeviation="8.5"/>
  <feComposite in2="hardAlpha" operator="out"/>
  <feColorMatrix type="matrix" values="0 0 0 0 0 0 0 0 0 0 0 0 0 0 0 0 0 0 0.51 0"/>
  <feBlend mode="normal" in2="BackgroundImageFix" result="effect1_dropShadow_10320_149"/>
  <feBlend mode="normal" in="SourceGraphic" in2="effect1_dropShadow_10320_149" result="shape"/>
  </filter>
  <linearGradient id="paint0_linear_10320_149" x1="77.5" y1="213" x2="348.5" y2="356.5" gradientUnits="userSpaceOnUse">
  <stop stop-color="#FE4760"/>
  <stop offset="1" stop-color="#C047B6"/>
  </linearGradient>
  <linearGradient id="paint1_linear_10320_149" x1="210.5" y1="28" x2="210.5" y2="401" gradientUnits="userSpaceOnUse">
  <stop stop-color="#111378"/>
  <stop offset="1" stop-color="#411F91"/>
  </linearGradient>
  <linearGradient id="paint2_linear_10320_149" x1="106" y1="0" x2="106" y2="96" gradientUnits="userSpaceOnUse">
  <stop stop-color="#FD4760"/>
  <stop offset="1" stop-color="#BE47B8"/>
  </linearGradient>
  <linearGradient id="paint3_linear_10320_149" x1="213" y1="0" x2="213" y2="96" gradientUnits="userSpaceOnUse">
  <stop stop-color="#FD4760"/>
  <stop offset="1" stop-color="#BE47B8"/>
  </linearGradient>
  <linearGradient id="paint4_linear_10320_149" x1="320" y1="0" x2="320" y2="96" gradientUnits="userSpaceOnUse">
  <stop stop-color="#FD4760"/>
  <stop offset="1" stop-color="#BE47B8"/>
  </linearGradient>
  <linearGradient id="paint5_linear_10320_149" x1="390.5" y1="283" x2="390.5" y2="446" gradientUnits="userSpaceOnUse">
  <stop stop-color="#FD4761"/>
  <stop offset="1" stop-color="#BE47B9"/>
  </linearGradient>
  <linearGradient id="paint6_linear_10320_149" x1="390" y1="251" x2="390" y2="478" gradientUnits="userSpaceOnUse">
  <stop stop-color="#111378"/>
  <stop offset="1" stop-color="#411F91"/>
  </linearGradient>
  </defs>
  </svg>
  